<mxfile host="65bd71144e">
    <diagram id="XHVOqXW8HS-sgzD6otw8" name="Cross_Madante">
        <mxGraphModel dx="1543" dy="1056" grid="1" gridSize="10" guides="1" tooltips="1" connect="1" arrows="1" fold="1" page="1" pageScale="1" pageWidth="827" pageHeight="1169" math="0" shadow="0">
            <root>
                <mxCell id="0"/>
                <mxCell id="1" parent="0"/>
                <mxCell id="57" value="" style="rounded=1;whiteSpace=wrap;html=1;fontSize=36;strokeColor=#000000;fillColor=#B3B3B3;" vertex="1" parent="1">
                    <mxGeometry x="720" width="690" height="900" as="geometry"/>
                </mxCell>
                <mxCell id="56" value="" style="rounded=1;whiteSpace=wrap;html=1;fontSize=36;strokeColor=#000000;fillColor=#B3B3B3;" vertex="1" parent="1">
                    <mxGeometry x="20" y="10" width="690" height="900" as="geometry"/>
                </mxCell>
                <mxCell id="30" style="edgeStyle=none;html=1;exitX=0.5;exitY=1;exitDx=0;exitDy=0;entryX=0.5;entryY=0;entryDx=0;entryDy=0;" parent="1" source="5" target="7" edge="1">
                    <mxGeometry relative="1" as="geometry"/>
                </mxCell>
                <mxCell id="5" value="S" style="ellipse;whiteSpace=wrap;html=1;aspect=fixed;fillColor=#007FFF;" parent="1" vertex="1">
                    <mxGeometry x="245" y="10" width="50" height="50" as="geometry"/>
                </mxCell>
                <mxCell id="6" value="E" style="ellipse;whiteSpace=wrap;html=1;aspect=fixed;fillColor=#007FFF;" parent="1" vertex="1">
                    <mxGeometry x="245" y="840" width="50" height="50" as="geometry"/>
                </mxCell>
                <mxCell id="28" style="edgeStyle=none;html=1;exitX=0.5;exitY=1;exitDx=0;exitDy=0;entryX=0.5;entryY=0;entryDx=0;entryDy=0;" parent="1" source="7" target="8" edge="1">
                    <mxGeometry relative="1" as="geometry"/>
                </mxCell>
                <mxCell id="7" value="Marcket_Open_Check &lt;br&gt;&amp;amp; &lt;br&gt;Position_Count_Check" style="rhombus;whiteSpace=wrap;html=1;fillColor=#808080;" parent="1" vertex="1">
                    <mxGeometry x="120" y="110" width="300" height="110" as="geometry"/>
                </mxCell>
                <mxCell id="21" style="edgeStyle=none;html=1;exitX=0;exitY=0.5;exitDx=0;exitDy=0;entryX=0;entryY=0.5;entryDx=0;entryDy=0;" parent="1" source="8" target="32" edge="1">
                    <mxGeometry relative="1" as="geometry">
                        <Array as="points">
                            <mxPoint x="40" y="530"/>
                            <mxPoint x="40" y="430"/>
                            <mxPoint x="40" y="330"/>
                            <mxPoint x="80" y="320"/>
                        </Array>
                    </mxGeometry>
                </mxCell>
                <mxCell id="26" style="edgeStyle=none;html=1;exitX=0.5;exitY=1;exitDx=0;exitDy=0;" parent="1" source="8" target="6" edge="1">
                    <mxGeometry relative="1" as="geometry"/>
                </mxCell>
                <mxCell id="8" value="Entry_Conditions_Check" style="rhombus;whiteSpace=wrap;html=1;fillColor=#808080;" parent="1" vertex="1">
                    <mxGeometry x="120" y="500" width="300" height="110" as="geometry"/>
                </mxCell>
                <mxCell id="9" value="Y" style="rounded=1;whiteSpace=wrap;html=1;fillColor=#808080;" parent="1" vertex="1">
                    <mxGeometry x="540" y="500" width="40" height="40" as="geometry"/>
                </mxCell>
                <mxCell id="10" value="N" style="rounded=1;whiteSpace=wrap;html=1;fillColor=#808080;" parent="1" vertex="1">
                    <mxGeometry x="205" y="650" width="40" height="40" as="geometry"/>
                </mxCell>
                <mxCell id="11" value="Get_List" style="swimlane;fontStyle=0;childLayout=stackLayout;horizontal=1;startSize=30;horizontalStack=0;resizeParent=1;resizeParentMax=0;resizeLast=0;collapsible=1;marginBottom=0;fillColor=#808080;" parent="1" vertex="1">
                    <mxGeometry x="460" y="110" width="220" height="120" as="geometry">
                        <mxRectangle x="460" y="110" width="80" height="30" as="alternateBounds"/>
                    </mxGeometry>
                </mxCell>
                <mxCell id="12" value="SymmerTime or Wintertime" style="text;strokeColor=none;fillColor=none;align=left;verticalAlign=middle;spacingLeft=4;spacingRight=4;overflow=hidden;points=[[0,0.5],[1,0.5]];portConstraint=eastwest;rotatable=0;" parent="11" vertex="1">
                    <mxGeometry y="30" width="220" height="30" as="geometry"/>
                </mxCell>
                <mxCell id="13" value="Spread" style="text;strokeColor=none;fillColor=none;align=left;verticalAlign=middle;spacingLeft=4;spacingRight=4;overflow=hidden;points=[[0,0.5],[1,0.5]];portConstraint=eastwest;rotatable=0;" parent="11" vertex="1">
                    <mxGeometry y="60" width="220" height="30" as="geometry"/>
                </mxCell>
                <mxCell id="14" value="Pos _sell＿Count  &amp;  Pos_buy_Count" style="text;strokeColor=none;fillColor=none;align=left;verticalAlign=middle;spacingLeft=4;spacingRight=4;overflow=hidden;points=[[0,0.5],[1,0.5]];portConstraint=eastwest;rotatable=0;" parent="11" vertex="1">
                    <mxGeometry y="90" width="220" height="30" as="geometry"/>
                </mxCell>
                <mxCell id="15" value="Entry_Conditions" style="swimlane;fontStyle=0;childLayout=stackLayout;horizontal=1;startSize=30;horizontalStack=0;resizeParent=1;resizeParentMax=0;resizeLast=0;collapsible=1;marginBottom=0;fillColor=#808080;" parent="1" vertex="1">
                    <mxGeometry x="320" y="570" width="220" height="120" as="geometry"/>
                </mxCell>
                <mxCell id="16" value="Cloud" style="text;strokeColor=none;fillColor=none;align=left;verticalAlign=middle;spacingLeft=4;spacingRight=4;overflow=hidden;points=[[0,0.5],[1,0.5]];portConstraint=eastwest;rotatable=0;" parent="15" vertex="1">
                    <mxGeometry y="30" width="220" height="30" as="geometry"/>
                </mxCell>
                <mxCell id="17" value="5EMA" style="text;strokeColor=none;fillColor=none;align=left;verticalAlign=middle;spacingLeft=4;spacingRight=4;overflow=hidden;points=[[0,0.5],[1,0.5]];portConstraint=eastwest;rotatable=0;" parent="15" vertex="1">
                    <mxGeometry y="60" width="220" height="30" as="geometry"/>
                </mxCell>
                <mxCell id="18" value="PerfectOrder" style="text;strokeColor=none;fillColor=none;align=left;verticalAlign=middle;spacingLeft=4;spacingRight=4;overflow=hidden;points=[[0,0.5],[1,0.5]];portConstraint=eastwest;rotatable=0;" parent="15" vertex="1">
                    <mxGeometry y="90" width="220" height="30" as="geometry"/>
                </mxCell>
                <mxCell id="19" value="USD/JPY&lt;br&gt;GBP/USD&lt;br&gt;.&lt;br&gt;.&lt;br&gt;.&lt;br&gt;.&lt;br&gt;.&lt;br&gt;all" style="whiteSpace=wrap;html=1;aspect=fixed;fillColor=#999999;strokeColor=#000000;" parent="1" vertex="1">
                    <mxGeometry x="530" y="620" width="150" height="150" as="geometry"/>
                </mxCell>
                <mxCell id="31" value="Loop(Currency_Count)" style="html=1;dashed=0;whitespace=wrap;shape=mxgraph.dfd.loop;fillColor=#3399FF;" parent="1" vertex="1">
                    <mxGeometry x="100" y="370" width="350" height="30" as="geometry"/>
                </mxCell>
                <mxCell id="32" value="Get_All_Currency" style="rounded=1;whiteSpace=wrap;html=1;fillColor=#808080;" parent="1" vertex="1">
                    <mxGeometry x="170" y="270" width="200" height="50" as="geometry"/>
                </mxCell>
                <mxCell id="33" value="E" style="ellipse;whiteSpace=wrap;html=1;aspect=fixed;fillColor=#007FFF;" vertex="1" parent="1">
                    <mxGeometry x="795" y="840" width="50" height="50" as="geometry"/>
                </mxCell>
                <mxCell id="34" value="" style="html=1;dashed=0;whitespace=wrap;shape=mxgraph.dfd.loop;fillColor=#3399FF;" vertex="1" parent="1">
                    <mxGeometry x="100" y="740" width="350" height="30" as="geometry"/>
                </mxCell>
                <mxCell id="37" value="" style="endArrow=classic;html=1;exitX=1;exitY=0.5;exitDx=0;exitDy=0;entryX=0;entryY=0.5;entryDx=0;entryDy=0;" edge="1" parent="1" source="8" target="38">
                    <mxGeometry width="50" height="50" relative="1" as="geometry">
                        <mxPoint x="500" y="560" as="sourcePoint"/>
                        <mxPoint x="550" y="555" as="targetPoint"/>
                    </mxGeometry>
                </mxCell>
                <mxCell id="38" value="Position_Entry_Run" style="rounded=1;whiteSpace=wrap;html=1;fillColor=#808080;" vertex="1" parent="1">
                    <mxGeometry x="740" y="530" width="220" height="50" as="geometry"/>
                </mxCell>
                <mxCell id="42" value="&lt;font style=&quot;font-size: 36px&quot;&gt;Tranzaction_DB&lt;/font&gt;" style="shape=datastore;whiteSpace=wrap;html=1;strokeColor=#000000;fillColor=#333333;" vertex="1" parent="1">
                    <mxGeometry x="860" y="40" width="370" height="140" as="geometry"/>
                </mxCell>
                <mxCell id="53" value="" style="shape=curlyBracket;whiteSpace=wrap;html=1;rounded=1;fontSize=36;strokeColor=#000000;fillColor=#3399FF;" vertex="1" parent="1">
                    <mxGeometry x="60" y="390" width="40" height="370" as="geometry"/>
                </mxCell>
            </root>
        </mxGraphModel>
    </diagram>
</mxfile>